<svg width="512" height="512" viewBox="0 0 512 512" xmlns="http://www.w3.org/2000/svg" role="img" aria-label="Natalia Porras Psicología logo">
  <defs>
    <linearGradient id="g" x1="0" x2="1" y1="0" y2="1">
      <stop offset="0%" stop-color="#ec5f88"/>
      <stop offset="100%" stop-color="#f8bc41"/>
    </linearGradient>
  </defs>
  <rect width="512" height="512" rx="256" fill="#fff8ef"/>
  <circle cx="256" cy="256" r="206" fill="url(#g)" opacity="0.2"/>
  <path d="M252 265c-34-70-118-96-150-45-28 45 14 112 103 112 23 0 40-18 47-67Z" fill="#ec5f88" opacity="0.72"/>
  <path d="M260 265c34-70 118-96 150-45 28 45-14 112-103 112-23 0-40-18-47-67Z" fill="#f8bc41" opacity="0.72"/>
  <path d="M254 258c-25-61-87-84-112-45-22 35 11 89 77 89 18 0 30-14 35-44Z" fill="#fff8ef" opacity="0.52"/>
  <path d="M258 258c25-61 87-84 112-45 22 35-11 89-77 89-18 0-30-14-35-44Z" fill="#fff8ef" opacity="0.52"/>
  <path d="M256 182c22 44 22 104 0 164-22-60-22-120 0-164Z" fill="#7d2945"/>
  <path d="M224 178c18 12 27 29 31 48M288 178c-18 12-27 29-31 48" fill="none" stroke="#7d2945" stroke-width="13" stroke-linecap="round"/>
  <circle cx="256" cy="355" r="12" fill="#7d2945"/>
</svg>
